<?xml version="1.0" encoding="utf-8"?>
<!-- Generator: Adobe Illustrator 20.1.0, SVG Export Plug-In . SVG Version: 6.00 Build 0)  -->
<svg version="1.1" xmlns="http://www.w3.org/2000/svg" xmlns:xlink="http://www.w3.org/1999/xlink" x="0px" y="0px"
	 viewBox="0 0 370.3 635.9" style="enable-background:new 0 0 370.3 635.9;" xml:space="preserve">
<style type="text/css">
	.st0{fill:#512D14;}
	.st1{fill:none;stroke:#361C04;stroke-width:5;stroke-miterlimit:10;}
	.st2{fill:#643615;}
	.st3{display:none;}
	.st4{display:inline;fill:#643615;}
	.st5{display:inline;fill:none;stroke:#361C04;stroke-width:5;stroke-miterlimit:10;}
	.st6{display:inline;fill:#E87E0A;}
	.st7{fill:#CE7113;}
	.st8{fill:#B2C010;}
	.st9{fill:#9EAB1F;}
	.st10{fill:#010202;}
	.st11{fill:#FFFFFF;}
	.st12{fill:#1E1E1C;}
	.st13{fill:#E63422;}
	.st14{display:inline;fill:#ECF1FA;stroke:#7089C5;stroke-width:5;stroke-miterlimit:10;}
	.st15{display:inline;}
	.st16{fill:#ECF1FA;}
	.st17{fill:#ECF1FA;stroke:#7089C5;stroke-width:5;stroke-miterlimit:10;}
</style>
<g id="Ebene_1">
	<rect class="st0" width="370.3" height="635.9"/>
	<path class="st1" d="M-45.6,383.3"/>
</g>
<g id="Ebene_4">
	<path class="st2" d="M35.9,92.3c0,0,6.2-18.8,22.9-29c16.7-10.2,16.7-10.2,33.7-10.2s42.8,12.2,53.4,13.2s18.7-1.2,18.7,6.4
		c0,7.6-9.9,57.4,0,74.5c9.9,17.1,0,112.4,0,121.2s-8.9,62.9,0,72.9c8.9,10,0,72,0,80s6.1,83.1,0,99.6c-6.1,16.4,2.2,36.3-5,44.4
		c-7.1,8.1-26.1,13.2-36.1,8.1s-50.4-5.1-56.2-5.1c-5.8,0-20.2-3.8-25.8-12.9c-5.6-9.1-5.6-47.5-5.6-62.3s6.6-139.8,3.6-151.8
		s-3.6-76-3.6-86s-1.6-92.8,0-103.9C37.4,140.3,35.9,92.3,35.9,92.3z"/>
	<path class="st2" d="M210.6,99.3c0,0-0.1-15,14.9-20s9-26.2,15-26.2s36-7.2,47,0s28.4,12.2,40.1,10.2s12.9,5,15.9,16s-1,40,0,60
		s6.5,68.8,1.1,74.4c-5.3,5.6-14.8,53.6-10.1,59.6c4.7,6,4.7,58.5,4.7,63.8s-6.2,72.2,0,74.7c6.2,2.5,7.1,43.5,7.6,59.5
		c0.6,16-7.6,63-7.6,65s-15.6,37-22.7,33c-7.1-4-56.1-1-60.1-6s-16.1-1-31-12c-14.9-11-14.9-48.4-14.9-58.2s2.9-43.8,1.9-56.8
		s-6.7-36-1.9-49c4.9-13,5.1-87.9,0-94.9c-5.1-7.1-0.9-78.5,0-84.3c0.9-5.8,2.9-26.8,2.9-35.8S210.6,99.3,210.6,99.3z"/>
</g>
<g id="Ebene_3" class="st3">
	<path class="st4" d="M52,130.2V187h102.9l-4.9-60.9c0,0-9.9-1-15-3c-5-2-15.3-7.3-18.2-7.1c-2.9,0.2-8,4.4-12.3,4.5
		c-4.2,0.1-10.1-4-15.7-4.5c-5.5-0.5-21.7,8-21.7,9.4C67.2,126.6,52,130.2,52,130.2z"/>
	<path class="st4" d="M58.7,250.2l1.6,69.1l99.3-2.9l-2.9-67.3l-13.4-5.2l-5.8,5.2c0,0-10.4-6.9-16.6-6.8
		c-6.2,0.1-17.1,6.2-20.6,5.5c-3.5-0.7-5.8-7.8-12.4-7.1c-6.6,0.7-21.7,7.3-21.7,7.3L58.7,250.2z"/>
	<path class="st4" d="M50.1,385.4v63.9h103.7l-6.5-68.9c0,0-9.6-0.4-15.9,0c-6.3,0.4-20.1-6.5-24.1-6.3s-10.5,9.2-13,9
		c-2.5-0.2-12.2-8.3-17.4-8.1c-5.2,0.2-15.8,5-16.5,8.1C59.8,386.3,50.1,385.4,50.1,385.4z"/>
	<path class="st4" d="M233.4,338.4v54.8l94.1-1.9l-6.1-57.9h-11c0,0-8.2-5.6-14.4-4.8s-14.1,3.8-16.6,3.6s-18.4-6.3-23.2-5.3
		c-4.9,1-12.8,2.7-13.6,5.4C241.7,335.1,233.4,338.4,233.4,338.4z"/>
	<path class="st4" d="M230.1,462.3l0.9,53.8l99-1.5l-10-58.1c0,0-13.4-3-16.2-2.9c-2.9,0-8.4-2.5-8.1-3.5c0.2-1-1.5-3-4.1-2.1
		s-11.5,5.8-12.5,5.1c-1-0.6-19.9-4.4-23.9-4s-13.2,0.1-13.8,5.4C240.8,459.8,232.7,467.2,230.1,462.3z"/>
	<path class="st4" d="M225.7,223.6v44.9h102.2l-1.1-49.1c0,0-10.6-2.3-12.5-2.9c-1.9-0.6-14.7-8.3-18.3-7.2
		c-3.6,1.1-7.6,4.4-10.9,4.5c-3.4,0.1-11.4-5.6-15.9-4.6c-4.5,1-18.6,2.4-20.7,5.2c-2.1,2.9-2.3,6.5-3.9,6.9
		S225.7,223.6,225.7,223.6z"/>
	<path class="st4" d="M225.4,124.4l1.6,60.6h107.5l-8.6-68.5c0,0-16.2-4.7-21-4.9c-4.7-0.2-14.4-2.1-17.1-2.2
		c-2.7,0-10.5,2.5-14.8,2.2c-4.3-0.4-10.2-2.8-14.5-2.2C254.3,110.1,225.4,124.4,225.4,124.4z"/>
</g>
<g id="Ebene_2" class="st3">
	<path class="st5" d="M63.3,383.2c0.8-3.7,3.1-5.8,6.4-6.8c4.5-1.4,12.8-2,17.2,0.3c2.9,1.6,4.7,5.1,8.7,4.5c4.6-0.7,4.9-6.7,9.2-8
		c7-2.2,15.8,3.1,22.1,5.5c5.8,2.2,10.3,2.1,15.8-1.1"/>
	<path class="st5" d="M245.6,114.4c6.8-3,11.8-7.6,19.1-4.5c6.5,2.8,9.7,1.8,16.2,0.1c4.7-1.2,10.1-0.5,14.6,0.9
		c3.6,1.1,10.3-0.3,13,1.9"/>
	<path class="st5" d="M245.2,219.3c-1.4-7.2,16.9-11.9,22.6-11.2c6.7,0.8,11.1,6.7,18.5,4.1c2-0.7,3.5-2.4,5.5-2.9
		c3.4-0.8,7.1,0.7,10.1,2c4.5,2,9.7,5.4,14.6,5.6"/>
	<path class="st5" d="M70.7,248c-0.2-0.7-1.7-0.1-0.9-1.8c5.2-2.7,13.6-7,19.9-5.3c9.2,2.6,5.2,6.9,16,4c6.3-1.7,10.6-4.6,18-2
		c4.7,1.6,13.5,12,15.4,1.2c5-1,10.6-0.1,13.6,3.9"/>
	<path class="st5" d="M244.7,337.1c3.1-15,26.5-4.8,34.8-4c6.6,0.6,12-4.1,19.4-3c6.8,1,11.6,4.9,18.8,4"/>
	<path class="st5" d="M244.7,462c-4.8-23.3,30.3-5.9,38.3-8c3.7-1,6.5-5.2,10.7-5.1c5.7,0.1,3.9,2.5,8,4.3c5.7,2.6,12.5,3.2,18,4.7"
		/>
	<path class="st5" d="M138.7,123.7c-5-0.2-10.1-3.6-14.6-5.6c-3-1.3-6.7-2.8-10.1-2c-2,0.5-3.6,2.2-5.5,2.9
		c-7.4,2.6-11.7-3.2-18.5-4.1c-5.7-0.7-24.1,4-22.6,11.2"/>
</g>
<g id="Ebene_6" class="st3">
	<path class="st6" d="M76.1,578.3c0,0-5.7-26.2-5.4-33.9c0.3-7.8,0.3-32.8,9.4-38.1c9.1-5.3,13.4-4,18.1-4.5
		c4.7-0.5,14.4-0.8,20.1,1.5c5.7,2.2,11.1,4.2,16.3,15.6c5.1,11.4,2.9,31.7,2.9,31.7l-3.1,32.6L76.1,578.3z"/>
	<path class="st7" d="M114.6,494.4c0,0,5.7-36.2,6-46.3c0.3-10.2-3-25.3-3-25.3s8.1,1.3,12.7,6.8c4.6,5.5,6.3,10.4,6.8,16.4
		c0.6,6,1.1,21.4-1.4,42.4c-2.6,21.1-4.9,16.1-4.9,16.1L114.6,494.4z"/>
	<path class="st8" d="M98.2,421.7c0,0-1.4-5.2-3.7-8.9c-2.3-3.6-18.2,1.8-21.4,1.5c-3.1-0.3-4.9-1-8,0c-3.1,1-5.4,5.5-10.8,3.9
		c-5.4-1.6-2.9-1.8-2.6-2.9c0.3-1,3.4-4.9,6.8-5.5c3.4-0.5-5.7-1.8-5.7-1.8s-4.6,0.4-6.6-3.5c-2-3.8,0.6-4.6,2-4.6
		c1.4,0,11.7,0,11.7,0s-2.9-1-3.7-3.4c-0.9-2.3-1.1-4.4-1.1-4.4s2.9-2.6,12.8,2.3c10,4.9,28.5,7.8,28.5,7.8s-2-19.5,2.7-25.3
		c4.6-5.7,16.9-13.1,16.9-13.1s5.1-4.5,5.7-2.5c0.6,2-1.1,4.3-1.1,4.3l-5.1,4.7c0,0,7.7,1.6,11.1,2.9c3.4,1.3,4.6,2.3,4.3,4.4
		c-0.3,2.1-5.4,2.9-5.4,2.9l-10-0.5c0,0,2.9,2.9,4.9,4.4c2,1.6,1.7,3.1,0,4.2c-1.7,1-6.6-0.5-7.4-1c-0.9-0.5-4.6-2.6-8-2.1
		c-3.4,0.5-1,2.2-1,2.2l0.9,10.2c0,0,4,1.7,9.7-0.1c5.7-1.8,17.4-4.4,22.8-3.3c5.4,1.1,8.6,4.5,8.6,4.5s2.9,2.6,0,4.4
		c-2.9,1.8-7.7,1.3-7.7,1.3l6.6,6.2c0,0,2.6,4.2,0.9,5.2c-1.7,1-7.7-1.3-7.7-1.3l-6.6-4.2c0,0,1.7,3.6,1.4,4.9
		c-0.3,1.3-3.1,1.6-4.9,0.8c-1.7-0.8-7.1-12-11.4-11.5c-4.3,0.5-6.8,0.3-6.8,0.3l-2.6,16.4H98.2z"/>
	<path class="st9" d="M102.9,421.3c0,0-4.7-32.8-1.9-39.8c2.9-7,8.3-10.4,10.6-12.2c2.3-1.8,9.6-4.6,9.6-4.6L117,370
		c0,0,4.6,0.8,8.6,2.1c4,1.3,7.4,4.2,6,6c-1.4,1.8-2.4,2.5-6.1,2.5c-3.7,0-8.5-0.1-8.5-0.1s2.1,1.5,4.1,3.6c2,2.1,2.1,4.2-0.1,5
		c-2.3,0.8-5.6-0.1-5.6-0.1s-6.4-4.1-9.6-3.6c-3.1,0.5-3.2,3.7-3.2,3.7l5,20c0,0,2.9-6.8,12.3-8.9c9.4-2.1,18.8-0.5,18.8-0.5
		s5.1,0.3,8,1.6c2.9,1.3-2.6,3.5-2.6,3.5l-4.9,0.5l5.8,4.8c0,0,3.9,4.6,0.7,6.2c-3.1,1.6-7.7-1.3-7.7-1.3l-5.8-4.1
		c0,0,3.5,4.9,1.4,5.7c-5.1,1.9-7-1.6-7-1.6s-5.8-8.4-6.9-8.7c-1.1-0.3-3.2-0.9-3.2-0.9s-4-2.1-5.4,0c-1.4,2.1-2.8,16-2.8,16
		L102.9,421.3z"/>
	<ellipse class="st10" cx="88.6" cy="469.3" rx="4.4" ry="4"/>
	<ellipse class="st10" cx="120.3" cy="468.8" rx="4.4" ry="4"/>
	<ellipse class="st11" cx="119.4" cy="469.7" rx="1.2" ry="1.1"/>
	<ellipse class="st11" cx="89.1" cy="470.5" rx="1.2" ry="1.1"/>
	<path class="st12" d="M78.4,460.4"/>
	<path class="st13" d="M97.1,484.4c0,0,2.3-2,8.3-2c6,0,12,3.7,12,3.7s4.2,2.7,0,3.4c-4.2,0.7-4.2-1.3-4.2-1.3s-0.9-2.9-6-2.8
		c-5.1,0.1-7.4,1.4-7.4,1.4s-2.1,3-4.8,2.4C92.5,488.4,97.1,484.4,97.1,484.4z"/>
	<path class="st2" d="M234.4,300.7v54.9l103.8,0.9l-4-62.3c0,0-6.5,0.5-8.8,2s-6.8,3.5-10,2.8s-8.7-8.3-13.3-6.6
		c-4.6,1.7-7,5.9-11.2,5.6c-4.2-0.2-20.1-12.5-23.3-10.2c-3.2,2.2-15,7.2-15.2,11.7S234.4,300.7,234.4,300.7z"/>
	<path class="st1" d="M252.1,300.7c-1.1-13.3,19.4-16.2,27.8-10.2c6.9,4.9,10,8.2,17.7,3.4c6.6-4.2,9.7,0.3,16.2,3
		c2.5,1,5.6,2.4,8.2,1.4c3.9-1.4,3.3-3.2,7.9-3.2"/>
</g>
<g id="Ebene_7" class="st3">
	<path class="st4" d="M52.4,505.9v76.9l103.7,0.9l-4-84.3c0,0-6.5,0.5-8.8,2s-6.8,3.5-10,2.8s-8.7-8.3-13.3-6.6
		c-4.6,1.7-7,5.9-11.2,5.6c-4.2-0.2-20.1-12.5-23.3-10.2c-3.2,2.2-15,7.2-15.2,11.7S52.4,505.9,52.4,505.9z"/>
	<path class="st5" d="M70,505.9c-1.1-13.3,19.4-16.2,27.8-10.2c6.9,4.9,10,8.2,17.7,3.4c6.6-4.2,9.7,0.3,16.2,3
		c2.5,1,5.6,2.4,8.2,1.4c3.9-1.4,3.3-3.2,7.9-3.2"/>
</g>
<g id="Ebene_5" class="st3">
	<path class="st14" d="M12.4,328.9V87.3c0,0-4-50,17-55s98.8-5,116.4,0s52.6,2.5,79.6-3.8s90-6.8,102.5,0s35.5,37.8,36.5,43.8
		s0,256.6,0,256.6s-2.1,34.4-17.5,35.4s-41.5-2.5-60.5-4.2c-19-1.8-70.9-11.8-97.9-9.8s-54.1,50-54.1,50s-9.6-46-25.3-53
		C93.4,340.3,52,333,52,333S18.4,341.6,12.4,328.9z"/>
</g>
<g id="sprechblase_oben_und_unten" class="st3">
	<path class="st14" d="M364.4,327.9c0,0-2.1,34.4-17.5,35.4s-41.5-2.5-60.5-4.2c-19-1.8-70.9-11.8-97.9-9.8s-54.1,50-54.1,50
		s-9.6-46-25.3-53C93.4,339.3,52,332,52,332s-33.6,8.6-39.6-4.1"/>
	<path class="st14" d="M12.4,87.3c0,0-4-51,17-56s98.8-5,116.4,0s52.6,2.5,79.6-3.8s90-6.8,102.5,0s36.3,28.9,36.5,61.8"/>
</g>
<g id="sprechblase_mitte" class="st3">
	<g class="st15">
		<rect x="12.2" y="86.9" class="st16" width="352" height="241.6"/>
		<path class="st17" d="M364.2,86.9c1,5.6,0,241.6,0,241.6"/>
		<line class="st17" x1="12.2" y1="328.5" x2="12.2" y2="86.9"/>
	</g>
</g>
</svg>
