<?xml version="1.0" encoding="utf-8"?>
<!-- Generator: Adobe Illustrator 20.1.0, SVG Export Plug-In . SVG Version: 6.00 Build 0)  -->
<svg version="1.1" id="Ebene_1" xmlns="http://www.w3.org/2000/svg" xmlns:xlink="http://www.w3.org/1999/xlink" x="0px" y="0px"
	 viewBox="0 0 110 71.9" style="enable-background:new 0 0 110 71.9;" xml:space="preserve">
<style type="text/css">
	.st0{fill:#B2C010;}
	.st1{fill:#9EAB1F;}
</style>
<path class="st0" d="M56.8,71.9c0,0-1.5-6.2-4-10.5c-2.5-4.3-19.7,2.1-23.1,1.8c-3.4-0.3-5.2-1.2-8.6,0c-3.4,1.2-5.9,6.5-11.7,4.6
	c-5.9-1.8-3.1-2.2-2.8-3.4C7,63.2,10.3,58.6,14,58s-6.2-2.2-6.2-2.2s-4.9,0.4-7.1-4.1c-2.2-4.5,0.6-5.5,2.2-5.5c1.5,0,12.6,0,12.6,0
	s-3.1-1.2-4-4c-0.9-2.8-1.2-5.2-1.2-5.2s3.1-3.1,13.9,2.8C35,45.7,55,49,55,49s-2.1-23.1,2.9-29.9c5-6.8,18.2-15.5,18.2-15.5
	s5.5-5.4,6.2-3C82.9,2.9,81,5.7,81,5.7l-5.5,5.5c0,0,8.3,1.8,12,3.4c3.7,1.5,4.9,2.8,4.6,5.2c-0.3,2.5-5.9,3.4-5.9,3.4l-10.8-0.6
	c0,0,3.1,3.4,5.2,5.2c2.2,1.8,1.8,3.7,0,4.9c-1.8,1.2-7.1-0.6-8-1.2c-0.9-0.6-4.9-3.1-8.6-2.5c-3.7,0.6-1.1,2.6-1.1,2.6l0.9,12.1
	c0,0,4.3,2,10.5-0.2c6.2-2.2,18.8-5.3,24.6-3.9c5.9,1.3,9.2,5.3,9.2,5.3s3.1,3.1,0,5.2c-3.1,2.2-8.3,1.5-8.3,1.5l7.1,7.4
	c0,0,2.8,4.9,0.9,6.2c-1.8,1.2-8.3-1.5-8.3-1.5l-7.1-4.9c0,0,1.8,4.3,1.5,5.9c-0.3,1.5-3.4,1.8-5.2,0.9c-1.8-0.9-7.7-14.2-12.3-13.6
	c-4.6,0.6-7.4,0.3-7.4,0.3l-2.8,19.4H56.8z"/>
<path class="st1" d="M61.9,71.4c0,0-5.1-38.8-2-47.1C63,16,68.9,12,71.3,9.8c2.5-2.2,10.4-5.4,10.4-5.4l-4.6,6.4
	c0,0,4.9,0.9,9.2,2.5c4.3,1.5,8,4.9,6.5,7.1c-1.5,2.2-2.6,3-6.6,3c-4,0-9.2-0.1-9.2-0.1s2.2,1.8,4.4,4.2c2.2,2.5,2.3,5-0.1,5.9
	c-2.5,0.9-6.1-0.1-6.1-0.1s-6.9-4.9-10.3-4.3c-3.4,0.6-3.5,4.4-3.5,4.4l5.4,23.7c0,0,3.1-8,13.2-10.5c10.2-2.5,20.3-0.6,20.3-0.6
	s5.5,0.3,8.6,1.8c3.1,1.5-2.8,4.2-2.8,4.2l-5.3,0.6l6.3,5.7c0,0,4.2,5.5,0.8,7.3c-3.4,1.8-8.3-1.5-8.3-1.5L93.4,59
	c0,0,3.8,5.8,1.5,6.8c-5.5,2.3-7.5-1.9-7.5-1.9s-6.2-10-7.5-10.3c-1.2-0.3-3.5-1.1-3.5-1.1s-4.3-2.5-5.9,0c-1.5,2.5-3,19-3,19
	L61.9,71.4z"/>
</svg>
