<?xml version="1.0" encoding="utf-8"?>
<!-- Generator: Adobe Illustrator 20.1.0, SVG Export Plug-In . SVG Version: 6.00 Build 0)  -->
<svg version="1.1" id="Ebene_2" xmlns="http://www.w3.org/2000/svg" xmlns:xlink="http://www.w3.org/1999/xlink" x="0px" y="0px"
	 viewBox="0 0 94 180" style="enable-background:new 0 0 94 180;" xml:space="preserve">
<style type="text/css">
	.st0{fill:#E87E0A;}
	.st1{fill:#CD7113;}
	.st2{fill:#B2C010;}
	.st3{fill:#9EAB1F;}
	.st4{fill:#020203;stroke:#FFFFFF;stroke-width:3;stroke-miterlimit:10;}
	.st5{fill:#FFFFFF;}
	.st6{fill:#1E1E1C;}
</style>
<path class="st0" d="M17,166.2c0,0-6.2-29-5.9-37.6c0.3-8.6,0.3-36.4,10.2-42.2c9.9-5.9,14.5-4.5,19.6-5c5.1-0.5,15.6-0.9,21.7,1.6
	c6.2,2.5,12,4.6,17.6,17.3c5.5,12.6,3.1,35.1,3.1,35.1l-3.4,36L17,166.2z"/>
<path class="st1" d="M58.6,167.4c0,0,6.2-42.8,6.5-54.8c0.3-12-3.2-29.9-3.2-29.9s8.8,1.5,13.7,8c4.9,6.5,6.8,12.3,7.4,19.4
	c0.6,7.1,1.2,25.3-1.5,50.2c-2.8,25-5.2,19.1-5.2,19.1L58.6,167.4z"/>
<path class="st2" d="M40.8,81.4c0,0-1.5-14.2-4-18.5c-2.5-4.3-3.7-9.9-7.1-10.2c-3.4-0.3-5.2-1.2-8.6,0c-3.4,1.2-5.9,6.5-11.7,4.6
	c-5.9-1.8-3.1-2.2-2.8-3.4c0.3-1.2,3.7-5.9,7.4-6.5c3.7-0.6-6.2-2.2-6.2-2.2s-4.9,0.4-7.1-4.1c-2.2-4.5,0.6-5.5,2.2-5.5
	s12.6,0,12.6,0s-3.1-1.2-4-4c-0.9-2.8-1.2-5.2-1.2-5.2s3.1-3.1,13.9,2.8C35,35.1,39,47.5,39,47.5s-0.1-27.1,4.9-33.9
	C48.9,6.8,62.1,1,62.1,1s5.5-2.4,6.2,0C68.9,3.4,67,6.2,67,6.2l-5.5,5.5c0,0,8.3,1.8,12,3.4c3.7,1.5,4.9,2.8,4.6,5.2
	s-5.9,3.4-5.9,3.4l-10.8-0.6c0,0,3.1,3.4,5.2,5.2c2.2,1.8,1.8,3.7,0,4.9c-1.8,1.2-7.1-0.6-8-1.2c-0.9-0.6-4.9-3.1-8.6-2.5
	C46.4,30.2,47,41.2,47,41.2l0.9,12.1c0,0,4.3-8,10.5-10.2c6.2-2.2,18.8-3.3,24.6-1.9c5.9,1.3,9.2,5.3,9.2,5.3s3.1,3.1,0,5.2
	c-3.1,2.2-8.3,1.5-8.3,1.5l7.1,7.4c0,0,2.8,4.9,0.9,6.2c-1.8,1.2-8.3-1.5-8.3-1.5l-7.1-4.9c0,0,1.8,4.3,1.5,5.9
	c-0.3,1.5-3.4,1.8-5.2,0.9C71,66.2,65.2,53,60.6,53.6c-4.6,0.6-7.4,8.3-7.4,8.3l-2.8,19.4H40.8z"/>
<path class="st3" d="M45.9,80.9c0,0-3.1-47.8,0-56.1c3.1-8.3,8.9-12.3,11.4-14.5c2.5-2.2,10.4-5.4,10.4-5.4l-4.6,6.4
	c0,0,4.9,0.9,9.2,2.5c4.3,1.5,8,4.9,6.5,7.1c-1.5,2.2-2.6,3-6.6,3c-4,0-9.2-0.1-9.2-0.1s2.2,1.8,4.4,4.2c2.2,2.5,2.3,5-0.1,5.9
	c-2.5,0.9-6.1-0.1-6.1-0.1s-6.9-4.9-10.3-4.3c-3.4,0.6-3.5,4.4-3.5,4.4l3.4,32.7c0,0,3.1-16,13.2-18.5c10.2-2.5,20.3-0.6,20.3-0.6
	s5.5,0.3,8.6,1.8c3.1,1.5-2.8,4.2-2.8,4.2L85,53.9l6.3,5.7c0,0,4.2,5.5,0.8,7.3c-3.4,1.8-8.3-1.5-8.3-1.5l-6.3-4.8
	c0,0,3.8,5.8,1.5,6.8c-5.5,2.3-7.5-1.9-7.5-1.9s-6.2-10-7.5-10.3c-1.2-0.3-3.5-1.1-3.5-1.1s-4.3,5.5-5.9,8c-1.5,2.5-3,19-3,19
	L45.9,80.9z"/>
<circle class="st4" cx="30.5" cy="137.7" r="4.7"/>
<circle class="st4" cx="64.7" cy="137" r="4.7"/>
<circle class="st5" cx="66.8" cy="135.1" r="1.3"/>
<circle class="st5" cx="32" cy="136.1" r="1.3"/>
<path class="st6" d="M19.5,127.2"/>
<path class="st6" d="M16.8,131.3c0,0,9.7-5.3,12.2-4.6c2.5,0.7,6.3,0.7,6.3,0.7s1.7-0.5,1.3-2.8c-0.4-2.3-5-1.8-8.4-1
	C24.7,124.4,16.8,131.3,16.8,131.3z"/>
<path class="st6" d="M77.9,130.4c0,0-9.6-5.3-12.1-4.6c-2.5,0.7-6.2,0.7-6.2,0.7s-1.7-0.5-1.2-2.8c0.4-2.3,5-1.8,8.4-1
	C70,123.4,77.9,130.4,77.9,130.4z"/>
</svg>
