<?xml version="1.0" encoding="utf-8"?>
<!-- Generator: Adobe Illustrator 20.1.0, SVG Export Plug-In . SVG Version: 6.00 Build 0)  -->
<svg version="1.1" id="Ebene_3" xmlns="http://www.w3.org/2000/svg" xmlns:xlink="http://www.w3.org/1999/xlink" x="0px" y="0px"
	 viewBox="0 0 133.4 133.1" style="enable-background:new 0 0 133.4 133.1;" xml:space="preserve">
<style type="text/css">
	.st0{fill:#E87E0A;}
	.st1{fill:#CD7113;}
	.st2{fill:#B2C010;}
	.st3{fill:#9EAB1F;}
	.st4{fill:#1E1E1C;}
	.st5{fill:#E63522;}
</style>
<path class="st0" d="M33,115.6c0,0-6.2-29-5.9-37.6c0.3-8.6,0.3-36.4,10.2-42.2c9.9-5.9,14.5-4.5,19.6-5c-6.6,0.7,32.6,5.9,21.7,1.6
	c6.2,2.5,12,4.6,17.6,17.3c5.5,12.6,3.1,35.1,3.1,35.1l-3.4,36L33,115.6z"/>
<path class="st1" d="M74.6,116.9c0,0,6.2-42.8,6.5-54.8c0.3-12-3.2-29.9-3.2-29.9s8.8,1.5,13.7,8c4.9,6.5,6.8,12.3,7.4,19.4
	c0.6,7.1,1.2,25.3-1.5,50.2c-2.8,25-5.2,19.1-5.2,19.1L74.6,116.9z"/>
<path class="st2" d="M56.8,30.8c0,0-1.5-0.2-4-4.5C50.4,22,33.1,40.5,29.8,40.2c-3.4-0.3-5.2-1.2-8.6,0c-3.4,1.2-5.9,6.5-11.7,4.6
	c-5.9-1.8-3.1-2.2-2.8-3.4c0.3-1.2,3.7-5.9,7.4-6.5c3.7-0.6-6.2,1.8-6.2,1.8s-4.9,0.4-7.1-4.1c-2.2-4.5,0.6-5.5,2.2-5.5
	c1.5,0,12.6,0,12.6,0s-3.1,0.8-4-2c-0.9-2.8-1.2-5.2-1.2-5.2s3.1-3.1,13.9,2.8C35,28.6,55,13.9,55,13.9S65.9,9.8,70.9,3
	c5-6.8,46.5,0.6,46.5,0.6s5.5-5.4,6.2-3c0.6,2.4-1.2,5.1-1.2,5.1l-5.5,5.5c0,0,8.3,1.8,12,3.4c3.7,1.5,4.9,2.8,4.6,5.2
	c-0.3,2.5-5.9,3.4-5.9,3.4l-10.8-0.6c0,0,3.1,3.4,5.2,5.2c2.2,1.8,1.8,3.7,0,4.9c-1.8,1.2-7.1-0.6-8-1.2C113,31,82.8,15.4,79.1,16.1
	c-3.7,0.6-1.1,2.6-1.1,2.6l-10.1-0.9c0,0,6.3,5,12.5,2.8c6.2-2.2,32.2,20.8,38,22.2c5.9,1.3,9.2,5.3,9.2,5.3s3.1,3.1,0,5.2
	c-3.1,2.2-8.3,1.5-8.3,1.5l7.1,7.4c0,0,2.8,4.9,0.9,6.2c-1.8,1.2-8.3-1.5-8.3-1.5l-7.1-4.9c0,0,1.8,4.3,1.5,5.9
	c-0.3,1.5-20.8-33.2-22.6-34.2c-1.8-0.9-3.7-5.2-8.3-4.6c-4.6,0.6-9.4-2.7-9.4-2.7l-6.8,4.4H56.8z"/>
<path class="st3" d="M61.9,30.3c0,0,7.9-13.8,11-22.1c3.1-8.3,37.2,3.8,39.7,1.6C115,7.7,123,4.4,123,4.4l-4.6,6.4
	c0,0,4.9,0.9,9.2,2.5c4.3,1.5,8,4.9,6.5,7.1c-1.5,2.2-2.6,3-6.6,3c-4,0-9.2-0.1-9.2-0.1s2.2,1.8,4.4,4.2c2.2,2.5,2.3,5-0.2,5.9
	c-2.5,0.9-6.1-0.1-6.1-0.1s-33.2-18-36.6-17.4c-3.4,0.6-3.5,4.4-3.5,4.4l-5.6,10.7c0,0,5.1-5,15.2-7.5c10.2-2.5,33.7,25.5,33.7,25.5
	s5.5,0.3,8.6,1.8c3.1,1.5-2.8,4.2-2.8,4.2l-5.3,0.6l6.2,5.7c0,0,4.2,5.5,0.8,7.3c-3.4,1.8-8.3-1.5-8.3-1.5l-6.3-4.8
	c0,0,3.8,5.8,1.5,6.8c-5.5,2.3-22.9-31-22.9-31s-4.2-7-5.5-7.3c-1.2-0.3-3.5-1.1-3.5-1.1s-4.3-2.5-5.9,0c-1.5,2.5-9,1-9,1L61.9,30.3
	z"/>
<path class="st4" d="M35.5,76.6"/>
<path class="st4" d="M44.3,87.2c0,0,4.6,4.3,7.1,3.7c2.5-0.6,3.1-1.5,4.6-2.6c1.5-1.1,1.4-0.8,0-1.5c-1.4-0.7-1.6,0-1.6,0
	s-1.3,2-2.9,1.9c-1.6,0-4.1-1.2-4.1-1.2s-1.3-1.2-2.1-1C44.3,86.7,44.3,87.2,44.3,87.2z"/>
<path class="st4" d="M71.2,85.8c0,0,4.6,4.3,7.1,3.7c2.5-0.6,3.1-1.5,4.6-2.6c1.5-1.1,1.4-0.8,0-1.5c-1.4-0.7-1.6,0-1.6,0
	s-1.3,2-2.9,1.9c-1.6,0-4.1-1.2-4.1-1.2s-1.3-1.2-2.1-1C71.2,85.3,71.2,85.8,71.2,85.8z"/>
<path class="st5" d="M54.2,103.8c0,0,2.5-2.4,9-2.4s13,4.3,13,4.3s4.5,3.2,0,4c-4.5,0.8-4.5-1.6-4.5-1.6s-1-3.4-6.5-3.3
	c-5.5,0.1-8,1.7-8,1.7s-2.3,3.6-5.1,2.8C49.2,108.6,54.2,103.8,54.2,103.8z"/>
</svg>
