<svg xmlns="http://www.w3.org/2000/svg" viewBox="0 0 71.57 157.56"><title>radischen_happy</title><g id="Ebene_2" data-name="Ebene 2"><path d="M20.52,157.56V130.11s-8-5.68-11.36-10.88-12.3-9.46-8-29.81S17.21,71.88,24.31,71s16.56,3.33,19.87,7.11,10.41,9.46,9,21.76-2.84,15.14-8,18.45-17,5.68-18.45,9.94-3.32,2.84-3.32,8S20.52,157.56,20.52,157.56Z" style="fill:#d91a3f"/></g><g id="Ebene_3" data-name="Ebene 3"><path d="M25.36,68.64S31,58.72,31.51,53.52,36.72,28,41.45,24.18s10.41-10.41,15.61-9S67.47,12,70.31,15a4.14,4.14,0,0,1,0,5.87s-.47,5.2-1.89,6.62-5.68,2.37-5.68,2.37,2.84,3.79,0,5.2-10.88,2.37-10.88,2.37-1.1,4.26-3.39,5.68a39.94,39.94,0,0,1-6.54,2.84s0,4.26-1.42,5.68S35.77,54,35.77,54l-7.1,14.65s-1.42,7.11-3.31,5.7S25.36,68.64,25.36,68.64Z" style="fill:#4c6c2a"/></g><g id="Ebene_4" data-name="Ebene 4"><path d="M25.36,73.39s.21-18.93-.84-23.18a17.54,17.54,0,0,1,0-8s-12.41-5.68-12.41-8.52V27s-2.84,1.89-2.84-4.26V11.88s-3.79-7.1,0-10.41,9.46,0,9.46,0-.47,2.84,2.84,3.31,6.62-1.42,7.57.95,0,8.22,0,8.22a5.56,5.56,0,0,1,4.73,4.56c.95,4.26-2.37,18.19-2.37,18.19L29.15,47.84l-2,25.55S25.83,77.18,25.36,73.39Z" style="fill:#627e2b"/></g><g id="Ebene_5" data-name="Ebene 5"><ellipse cx="16.84" cy="91.03" rx="3.27" ry="4.11" style="fill:#010000"/><ellipse cx="36.51" cy="91.48" rx="3.27" ry="4.11" style="fill:#010000"/><ellipse cx="37.91" cy="89.8" rx="0.87" ry="1.09" style="fill:#fff"/><ellipse cx="17.91" cy="89.67" rx="0.87" ry="1.09" style="fill:#fff"/><path d="M20.51,109.85s1.73,2.6,6.22,2.6,9-4.72,9-4.72,3.11-3.52,0-4.39-3.11-.27-3.11-.27a14.13,14.13,0,0,1-5.49.6c-3.8-.13-4.53,1.14-4.53,1.14s.73-1.27-3.55-1C16.87,103.88,20.51,109.85,20.51,109.85Z" style="fill:#841628"/></g><g id="Ebene_6" data-name="Ebene 6"><polygon points="24.52 103.86 24.52 107.67 29.62 107.67 29.62 103.64 24.52 103.86" style="fill:#f5d7d1"/></g></svg>