<svg xmlns="http://www.w3.org/2000/svg" viewBox="0 0 213.39 185.95"><title>sun1</title><g id="sonne2"><path d="M56.47,72.86s1.25-29.34-14.36-57.25c0,0,27,39.27,38.8,36S90.37,9.46,90.37,9.46,96.52,44,110.24,45.9s26-45.9,26-45.9-10.41,41.64,0,52.52,33.12-12.3,33.12-12.3S146.38,59.14,154.1,71s59.29,16.56,59.29,16.56-52.52,0-51.1,13.25,33.59,27.39,33.59,27.39-34.54-15.56-35.49-2.79,10.88,26,10.88,26-12.3-9.47-21.76-3.08,4.58,32.41,4.58,32.41-15.94-25.08-28.71-23.18-11.83,28.39-11.83,28.39-7.1-24.13-21.76-29.34-27,24.6-27,24.6,7.57-28.52,0-39.1-45.42,0-45.42,0,26.5-19.57,27.92-32.35S0,86.59,0,86.59,52.37,88,56.47,72.86Z" style="fill:#ffd81c"/></g><g id="sonne_innen" data-name="sonne innen"><path d="M99.52,57.89s-44.5,2-44.8,45.59,79.75,61.17,90.08,31.74c8-22.88,12.66-43.25,1.13-56.88C126,54.76,99.52,57.89,99.52,57.89Z" style="fill:#f9cb2d"/></g></svg>