<svg xmlns="http://www.w3.org/2000/svg" viewBox="0 0 213.39 185.95"><title>sun2</title><g id="sonne2"><path d="M56.47,72.86s1.25-29.34-14.36-57.25c0,0,27,39.27,38.8,36S90.37,9.46,90.37,9.46,96.52,44,110.24,45.9s26-45.9,26-45.9-10.41,41.64,0,52.52,33.12-12.3,33.12-12.3S146.38,59.14,154.1,71s59.29,16.56,59.29,16.56-52.52,0-51.1,13.25,33.59,27.39,33.59,27.39-34.54-15.56-35.49-2.79,10.88,26,10.88,26-12.3-9.47-21.76-3.08,4.58,32.41,4.58,32.41-15.94-25.08-28.71-23.18-11.83,28.39-11.83,28.39-7.1-24.13-21.76-29.34-27,24.6-27,24.6,7.57-28.52,0-39.1-45.42,0-45.42,0,26.5-19.57,27.92-32.35S0,86.59,0,86.59,52.37,88,56.47,72.86Z" style="fill:#ffd81c"/></g><g id="sonne1"><path d="M60.6,64.65S66.8,36,56.14,5.8c0,0,19.93,43.27,32.15,42s16.45-39.9,16.45-39.9S105,43,118.16,47.18,151.58,6.35,151.58,6.35s-17.31,39.27-8.89,51.76,34.72-6.52,34.72-6.52-25.88,14.76-20.27,27.72,55.63,26.36,55.63,26.36-51.76-8.89-52.61,4.41,28.47,32.68,28.47,32.68-31.41-21.18-34.5-8.75,6.32,27.49,6.32,27.49-10.52-11.41-20.93-6.72-1,32.72-1,32.72-11.46-27.41-24.37-27.71-16.46,26-16.46,26-2.91-25-16.49-32.6-30.75,19.68-30.75,19.68S62.78,146,57.11,134.32s-44.77-7.69-44.77-7.69,29.43-14.8,33-27.15S2.62,68.62,2.62,68.62,54,78.88,60.6,64.65Z" style="fill:#ffd81c"/></g><g id="sonne_innen" data-name="sonne innen"><path d="M99.52,57.89s-44.5,2-44.8,45.59,79.75,61.17,90.08,31.74c8-22.88,12.66-43.25,1.13-56.88C126,54.76,99.52,57.89,99.52,57.89Z" style="fill:#f9cb2d"/></g></svg>